<svg width="1411" height="216" viewBox="0 0 1411 216" fill="none" xmlns="http://www.w3.org/2000/svg">
<path d="M0.505723 76.6692H73.8718C82.8339 76.6692 90.6245 77.6357 97.2436 79.5687C103.921 81.4431 109.457 84.0497 113.85 87.3885C118.243 90.7273 121.494 94.7105 123.603 99.338C125.77 103.907 126.854 108.857 126.854 114.187C126.854 122.915 124.101 130.559 118.594 137.119C124.921 140.868 129.636 145.73 132.74 151.705C135.845 157.679 137.397 164.474 137.397 172.089C137.397 178.474 136.314 184.244 134.146 189.398C132.038 194.553 128.787 198.975 124.393 202.666C120.059 206.297 114.553 209.109 107.875 211.101C101.256 213.034 93.4361 214 84.4155 214H0.505723V76.6692ZM84.5912 129.387C86.9928 129.387 89.3358 129.475 91.6203 129.651C95.5449 125.902 97.5072 121.626 97.5072 116.823C97.5072 111.844 95.5449 108.007 91.6203 105.313C87.7543 102.56 82.0724 101.183 74.5748 101.183H28.3585V129.387H84.5912ZM85.1184 189.75C92.6161 189.75 98.2979 188.139 102.164 184.917C106.089 181.695 108.051 177.156 108.051 171.298C108.051 165.441 106.089 160.872 102.164 157.592C98.2979 154.311 92.6161 152.671 85.1184 152.671H28.3585V189.75H85.1184ZM227.262 46.1512H263.345L344.531 214H308.77L295.347 185.757H197.301L184.307 214H148.439L227.262 46.1512ZM281.923 157.728L245.626 81.4821L210.295 157.728H281.923ZM373.877 23.2627H470.893C485.537 23.2627 498.229 24.8085 508.968 27.9C519.707 30.9101 528.615 35.3033 535.693 41.0795C542.771 46.8557 548.018 53.8929 551.435 62.1912C554.933 70.4894 556.682 79.8859 556.682 90.3808C556.682 97.4587 555.828 104.211 554.12 110.638C552.411 116.984 549.767 122.841 546.188 128.211C542.689 133.58 538.255 138.38 532.886 142.611C527.517 146.76 521.212 150.218 513.971 152.984L555.462 214H508.113L472.236 159.817H471.137L412.562 159.695V214H373.877V23.2627ZM471.87 126.258C479.192 126.258 485.578 125.404 491.029 123.696C496.561 121.987 501.158 119.587 504.819 116.496C508.561 113.404 511.327 109.662 513.117 105.269C514.988 100.794 515.923 95.8316 515.923 90.3808C515.923 79.7232 512.263 71.5064 504.941 65.7301C497.619 59.8726 486.595 56.9438 471.87 56.9438H412.562V126.258H471.87ZM605.818 0.37425H719.943C733.884 0.37425 746.003 1.87769 756.299 4.88458C766.686 7.80035 775.297 11.8551 782.131 17.0488C788.965 22.2425 794.022 28.4385 797.302 35.6368C800.673 42.744 802.359 50.4435 802.359 58.7352C802.359 72.3118 798.076 84.2027 789.511 94.4078C799.352 100.239 806.687 107.802 811.516 117.096C816.346 126.39 818.76 136.96 818.76 148.805C818.76 158.737 817.074 167.712 813.703 175.731C810.423 183.749 805.366 190.628 798.532 196.369C791.789 202.018 783.224 206.392 772.837 209.49C762.54 212.497 750.376 214 736.344 214H605.818V0.37425ZM736.617 82.3803C740.353 82.3803 743.998 82.517 747.552 82.7903C753.656 76.9588 756.709 70.3072 756.709 62.8355C756.709 55.0905 753.656 49.1223 747.552 44.9309C741.538 40.6483 732.699 38.5071 721.036 38.5071H649.144V82.3803H736.617ZM737.437 176.277C749.101 176.277 757.939 173.771 763.953 168.76C770.058 163.749 773.11 156.687 773.11 147.575C773.11 138.463 770.058 131.356 763.953 126.254C757.939 121.151 749.101 118.6 737.437 118.6H649.144V176.277H737.437ZM859.519 23.2627H1021.94V57.1878H898.203V95.2621H1007.79V127.113H898.203V180.197H1024.51V214H859.519V23.2627ZM1064.21 46.1512H1149.59C1162.47 46.1512 1173.64 47.5114 1183.09 50.232C1192.54 52.8809 1200.38 56.7469 1206.61 61.83C1212.84 66.913 1217.46 73.1058 1220.46 80.4082C1223.54 87.7107 1225.08 95.9796 1225.08 105.215C1225.08 111.444 1224.33 117.386 1222.83 123.042C1221.32 128.626 1219 133.781 1215.85 138.506C1212.77 143.231 1208.86 147.455 1204.14 151.178C1199.41 154.829 1193.87 157.871 1187.49 160.306L1224.01 214H1182.34L1150.77 166.319H1149.8L1098.25 166.212V214H1064.21V46.1512ZM1150.45 136.787C1156.89 136.787 1162.51 136.036 1167.31 134.532C1172.17 133.029 1176.22 130.917 1179.44 128.196C1182.73 125.476 1185.17 122.183 1186.74 118.317C1188.39 114.379 1189.21 110.012 1189.21 105.215C1189.21 95.8364 1185.99 88.6056 1179.55 83.5225C1173.1 78.3678 1163.4 75.7905 1150.45 75.7905H1098.25V136.787H1150.45ZM1267.54 173.143C1272.52 175.955 1277.55 178.503 1282.65 180.788C1287.81 183.013 1293.14 184.917 1298.64 186.499C1304.15 188.022 1309.92 189.193 1315.95 190.013C1322.04 190.833 1328.52 191.243 1335.37 191.243C1343.63 191.243 1350.66 190.716 1356.46 189.662C1362.26 188.549 1366.97 187.055 1370.6 185.181C1374.29 183.248 1376.96 180.963 1378.6 178.327C1380.3 175.691 1381.15 172.821 1381.15 169.717C1381.15 164.738 1379.07 160.813 1374.91 157.943C1370.75 155.014 1364.33 153.55 1355.67 153.55C1351.86 153.55 1347.85 153.813 1343.63 154.341C1339.41 154.809 1335.13 155.336 1330.8 155.922C1326.52 156.508 1322.28 157.064 1318.06 157.592C1313.9 158.06 1309.98 158.294 1306.29 158.294C1300.14 158.294 1294.22 157.504 1288.54 155.922C1282.91 154.341 1277.91 151.968 1273.51 148.805C1269.18 145.642 1265.72 141.688 1263.14 136.944C1260.57 132.199 1259.28 126.664 1259.28 120.337C1259.28 116.589 1259.78 112.869 1260.77 109.179C1261.83 105.488 1263.47 101.974 1265.69 98.6351C1267.98 95.2377 1270.91 92.1039 1274.48 89.2337C1278.05 86.3049 1282.36 83.7861 1287.4 81.6774C1292.49 79.5687 1298.35 77.9285 1304.97 76.757C1311.65 75.5269 1319.23 74.9119 1327.72 74.9119C1333.88 74.9119 1340.05 75.2633 1346.26 75.9663C1352.47 76.6106 1358.51 77.5478 1364.36 78.7779C1370.28 80.008 1375.96 81.5017 1381.41 83.2589C1386.86 84.9576 1391.92 86.8613 1396.61 88.9701L1384.4 111.463C1380.53 109.764 1376.37 108.212 1371.92 106.806C1367.47 105.342 1362.81 104.083 1357.95 103.028C1353.09 101.974 1348.05 101.154 1342.84 100.568C1337.68 99.9237 1332.41 99.6016 1327.02 99.6016C1319.35 99.6016 1313.02 100.158 1308.04 101.271C1303.12 102.384 1299.2 103.819 1296.27 105.576C1293.34 107.275 1291.29 109.208 1290.12 111.375C1289.01 113.484 1288.45 115.593 1288.45 117.701C1288.45 121.802 1290.29 125.17 1293.99 127.806C1297.68 130.383 1303.3 131.672 1310.85 131.672C1313.9 131.672 1317.39 131.467 1321.31 131.057C1325.29 130.588 1329.45 130.09 1333.79 129.563C1338.18 129.036 1342.63 128.567 1347.14 128.157C1351.71 127.689 1356.13 127.454 1360.41 127.454C1368.49 127.454 1375.64 128.362 1381.85 130.178C1388.12 131.994 1393.36 134.601 1397.58 137.998C1401.79 141.337 1404.99 145.408 1407.15 150.211C1409.32 154.956 1410.4 160.286 1410.4 166.202C1410.4 174.11 1408.56 181.168 1404.87 187.377C1401.24 193.528 1396.02 198.741 1389.23 203.017C1382.49 207.235 1374.35 210.456 1364.8 212.682C1355.26 214.849 1344.62 215.933 1332.91 215.933C1325.18 215.933 1317.62 215.435 1310.24 214.439C1302.86 213.502 1295.77 212.155 1288.98 210.398C1282.24 208.582 1275.8 206.444 1269.65 203.984C1263.56 201.465 1257.9 198.712 1252.69 195.724L1267.54 173.143Z" fill="#C7A17D" fill-opacity="0.04"/>
</svg>
