<svg width="65" height="70" viewBox="0 0 65 70" fill="none" xmlns="http://www.w3.org/2000/svg">
<path fill-rule="evenodd" clip-rule="evenodd" d="M32.6012 0.904266C32.4545 0.964489 32.2113 1.1746 32.0609 1.371C31.8138 1.69391 31.7856 1.89215 31.7662 3.44255C31.7379 5.70198 31.9657 6.20904 33.0156 6.22369C34.035 6.23791 34.2878 5.649 34.2615 3.32163L34.2417 1.57125L33.8359 1.17841C33.425 0.78073 33.0858 0.70536 32.6012 0.904266ZM20.7982 4.5263C20.6162 4.62732 20.3956 4.88687 20.3076 5.10286C19.9871 5.89013 20.183 6.22878 22.3184 8.58094C24.6423 11.1407 25.1171 11.5572 25.72 11.5656C26.3627 11.5746 26.8933 10.9825 26.9025 10.2462C26.9094 9.6983 26.8617 9.63404 24.6456 7.2056C23.4005 5.8411 22.23 4.63802 22.0446 4.53227C21.6225 4.29137 21.2241 4.28953 20.7982 4.5263ZM43.8829 4.89888C43.6738 5.03272 42.4849 6.20274 41.2411 7.49892C39.0311 9.80186 38.9794 9.86846 38.9725 10.415C38.9633 11.151 39.4791 11.7576 40.1217 11.7666C40.7246 11.775 41.2096 11.3719 43.5968 8.87786C45.1325 7.27333 45.675 6.62114 45.7472 6.293C46.0067 5.1132 44.8731 4.26542 43.8829 4.89888ZM31.9399 8.63182C31.5947 8.86626 31.2897 9.3769 30.4065 11.1983C29.8002 12.4488 29.2491 13.5271 29.1819 13.5944C29.1148 13.6617 28.0136 13.8609 26.7349 14.0369C25.4562 14.2131 24.2651 14.4343 24.088 14.5284C23.2956 14.95 22.9357 15.7589 23.0992 16.7507C23.1589 17.1136 23.5498 17.6113 24.987 19.1541L26.7994 21.0997L26.359 23.63C26.0851 25.2035 25.9472 26.3338 25.9942 26.6192C26.1417 27.514 26.9154 28.1792 27.8238 28.1918C28.0817 28.1954 29.0233 27.7737 30.4835 27.0008L32.744 25.8042L34.9738 27.0634C36.4142 27.8769 37.3449 28.3247 37.6028 28.3283C38.5112 28.341 39.3013 27.6977 39.4711 26.8073C39.5252 26.5232 39.4156 25.3895 39.1811 23.8089L38.8042 21.2672L40.6646 19.3729C42.1399 17.8707 42.5431 17.3841 42.6119 17.023C42.8001 16.036 42.4605 15.2174 41.679 14.7739C41.5043 14.6748 40.3192 14.4205 39.0453 14.2087C37.7715 13.9971 36.6756 13.7672 36.6102 13.6981C36.5447 13.6289 36.0208 12.5356 35.446 11.2686C34.2617 8.6585 34.0097 8.36195 32.9623 8.34734C32.5594 8.34172 32.2336 8.43237 31.9399 8.63182ZM33.8408 13.8113C34.31 14.8446 34.8155 15.8139 34.9642 15.9653C35.1759 16.1811 35.6642 16.3151 37.22 16.5842C38.3119 16.7732 39.2611 16.9295 39.3292 16.9316C39.3973 16.9338 38.7801 17.6293 37.9576 18.4771C36.9349 19.5315 36.4215 20.1621 36.333 20.4721C36.2342 20.8186 36.2727 21.3927 36.4966 22.9117C36.6578 24.0043 36.7632 24.9254 36.731 24.9586C36.6986 24.9918 35.9179 24.585 34.9958 24.0547C33.6697 23.2918 33.2063 23.0887 32.7781 23.0828C32.3498 23.0768 31.8815 23.2669 30.5367 23.9925C29.6018 24.4968 28.8111 24.8817 28.7796 24.8477C28.7482 24.8135 28.8766 23.8957 29.065 22.808C29.3269 21.2958 29.3797 20.7229 29.2896 20.3738C29.2089 20.0615 28.7115 19.4168 27.7155 18.3342C26.9145 17.4637 26.2963 16.7519 26.3414 16.7525C26.9231 16.7606 30.1449 16.1995 30.477 16.0323C30.8572 15.8408 31.0567 15.5351 31.8873 13.8702C32.4193 12.8038 32.8846 11.9316 32.9212 11.9319C32.9576 11.9323 33.3715 12.778 33.8408 13.8113ZM30.8687 29.9535C29.6968 30.261 28.7522 30.7303 27.8645 31.4464C25.8924 33.0373 24.7126 35.6713 24.8233 38.2366C24.9131 40.3219 25.8284 42.4912 27.1942 43.8562C27.5155 44.1772 27.7221 44.4589 27.6532 44.4821C27.5843 44.5052 27.0924 44.7783 26.56 45.0889C24.6312 46.2141 23.0985 47.7168 21.9762 49.5832L21.4051 50.5329L21.1083 50.1894C20.6445 49.653 19.2795 48.5977 18.319 48.033C17.8384 47.7505 17.4269 47.5049 17.4046 47.4872C17.3823 47.4695 17.6272 47.2056 17.9489 46.9007C19.9135 45.0388 20.8842 41.8231 20.2828 39.169C19.5518 35.9426 17.557 33.76 14.5588 32.9056C11.7345 32.1007 8.54003 33.2292 6.6537 35.698C5.9255 36.6511 5.47555 37.6178 5.13624 38.9577C4.46873 41.594 5.35862 44.8357 7.276 46.7518C7.58997 47.0655 7.82812 47.3393 7.80535 47.3602C7.78258 47.3812 7.41988 47.5743 6.99945 47.7896C4.54252 49.0469 2.29386 51.5291 1.20916 54.1807C0.285315 56.4395 0.252164 56.687 0.126015 62.2793L0.0117681 67.3422L0.383256 67.7931L0.75487 68.244L32.1314 68.7158L63.5078 69.1876L63.9242 68.8049L64.3404 68.4222L64.398 63.2674C64.4618 57.5512 64.4449 57.3861 63.5582 55.0507C62.5402 52.3698 60.3544 49.8257 57.9298 48.5002C57.5149 48.2734 57.1572 48.0702 57.1349 48.0486C57.1127 48.027 57.3576 47.76 57.6793 47.4551C59.6439 45.5932 60.6146 42.3775 60.0132 39.7234C59.2822 36.497 57.2874 34.3144 54.2891 33.46C51.4649 32.6551 48.2704 33.7836 46.3841 36.2524C45.6559 37.2055 45.2059 38.1722 44.8666 39.5121C44.1991 42.1484 45.089 45.3901 47.0064 47.3062C47.3204 47.6199 47.5586 47.8905 47.5358 47.9076C47.5131 47.9247 47.0956 48.1588 46.6081 48.4278C45.6338 48.9654 44.2429 49.9823 43.7659 50.5056L43.4605 50.8407L42.9134 49.8754C41.8382 47.9783 40.3436 46.4333 38.4436 45.2547C37.9192 44.9294 37.4342 44.6426 37.366 44.6176C37.2976 44.5925 37.5112 44.3167 37.8404 44.0047C39.8188 42.1295 40.791 38.9224 40.1879 36.2602C39.8822 34.9113 39.4566 33.9324 38.7525 32.9593C36.9248 30.4337 33.7102 29.208 30.8687 29.9535ZM33.8961 32.5948C36.5264 33.2885 38.2393 36.0854 37.7605 38.9049C37.0059 43.349 31.8278 45.0316 28.848 41.801C26.0357 38.7523 27.3859 33.636 31.2758 32.601C32.2971 32.3292 32.8835 32.3279 33.8961 32.5948ZM13.7753 35.4332C15.846 35.8753 17.5526 37.7959 17.8775 40.0503C18.41 43.7454 15.2679 46.9764 11.7836 46.3168C8.94293 45.779 7.0137 42.8789 7.51868 39.9057C8.04376 36.8138 10.8489 34.8085 13.7753 35.4332ZM53.5057 35.9876C55.5764 36.4297 57.283 38.3503 57.6079 40.6047C58.1404 44.2998 54.9983 47.5308 51.514 46.8712C47.305 46.0744 45.7113 40.607 48.771 37.4609C50.0781 36.1167 51.7187 35.6061 53.5057 35.9876ZM35.1031 46.6095C38.3672 47.6474 40.8764 50.3621 41.8458 53.904C42.1004 54.8339 42.1117 55.1463 42.0873 60.5555L42.0617 66.2313L40.7971 66.2136L39.5324 66.196L39.5616 63.8626L39.5908 61.5292L39.2281 61.1361C38.96 60.8454 38.746 60.7412 38.4075 60.7365C37.2774 60.7208 37.0799 61.1984 37.0445 64.0326L37.0178 66.1609L29.7181 66.059L22.4186 65.9572L22.5349 60.2827C22.6458 54.8731 22.6648 54.563 22.943 53.6391C24.0024 50.1189 26.6449 47.4153 29.8701 46.5519C31.232 46.1872 31.3025 46.1799 32.8027 46.2516C33.7137 46.2951 34.4981 46.4171 35.1031 46.6095ZM15.198 49.5184C16.946 50.0741 18.9096 51.4149 19.9043 52.7316L20.3688 53.3466L20.2078 54.5053C20.1092 55.2167 20.0222 57.6446 19.9828 60.7932L19.9187 65.9223L11.2338 65.8011L2.54884 65.6799L2.65018 61.5985C2.74289 57.8655 2.7762 57.4343 3.04055 56.548C4.08718 53.0385 6.73888 50.3244 9.96501 49.4607C11.3269 49.096 11.3974 49.0888 12.8976 49.1604C13.8087 49.2039 14.5931 49.3259 15.198 49.5184ZM54.9284 50.0728C58.1935 51.1111 60.7118 53.8364 61.6685 57.3672C61.9102 58.2594 61.9329 58.6926 61.9322 62.4257L61.9315 66.5085L53.2465 66.3873L44.5616 66.2662L44.6257 61.137C44.6651 57.9884 44.6389 55.559 44.5581 54.8451L44.4261 53.6823L44.9058 53.0805C45.5082 52.3249 46.962 51.1841 47.9887 50.6614C48.6782 50.3104 49.9739 49.8909 50.9305 49.7088C51.6555 49.5707 54.0296 49.7868 54.9284 50.0728ZM37.6885 55.7836C37.0611 56.2901 37.047 57.4032 37.6621 57.8711C38.4317 58.4563 39.6371 57.8292 39.6495 56.837C39.6621 55.8269 38.4447 55.173 37.6885 55.7836Z" fill="white"/>
</svg>
