<svg width="69" height="73" viewBox="0 0 69 73" fill="none" xmlns="http://www.w3.org/2000/svg">
<path fill-rule="evenodd" clip-rule="evenodd" d="M53.9758 2.35112C52.9425 4.49064 52.6437 4.70224 50.6588 4.70224C47.7296 4.70224 47.3846 5.60331 49.4507 7.8551C51.0644 9.61373 51.1351 9.87236 50.582 11.9895C49.7651 15.113 50.4969 15.6814 53.3531 14.1426L55.6452 12.9071L57.9372 14.1426C60.7935 15.6814 61.5252 15.113 60.7083 11.9895C60.1552 9.87236 60.2259 9.61373 61.8396 7.8551C63.9057 5.60331 63.5607 4.70224 60.6315 4.70224C58.6467 4.70224 58.3478 4.49064 57.3145 2.35112C56.6902 1.058 55.939 0 55.6452 0C55.3514 0 54.6001 1.058 53.9758 2.35112ZM56.6568 5.58391C57.0502 6.49615 57.7497 7.05336 58.502 7.05336C59.6627 7.05336 59.6728 7.10039 58.7418 8.1866C58.1214 8.91134 57.9027 9.76009 58.137 10.5383C58.4697 11.6475 58.3712 11.7039 57.0374 11.1684C56.0603 10.7758 55.2262 10.7758 54.5323 11.1678C53.0159 12.0248 52.7444 11.9008 53.1539 10.5377C53.3876 9.76009 53.169 8.91075 52.5485 8.1866C51.6176 7.10039 51.6276 7.05336 52.7883 7.05336C53.5407 7.05336 54.2401 6.49615 54.6335 5.58391C54.9819 4.77571 55.4376 4.11446 55.6452 4.11446C55.8527 4.11446 56.3085 4.77571 56.6568 5.58391ZM48.241 16.8334C48.0285 17.058 47.8548 29.2321 47.8548 43.8878V70.5336H45.082H42.3092L42.1607 55.3983L42.0121 40.263H34.5H26.9879L26.8393 55.3983L26.6908 70.5336H23.9324H21.1735L21.02 61.2761L20.8669 52.0186H13.3548H5.84274L5.68972 61.2761L5.53614 70.5336H2.76835C0.371153 70.5336 0 70.6912 0 71.7092C0 72.8718 0.371151 72.8848 34.5 72.8848C68.6288 72.8848 69 72.8718 69 71.7092C69 70.6906 68.6288 70.5336 66.2233 70.5336H63.4466L63.3019 43.6427L63.1573 16.7517L55.8922 16.5883C51.8969 16.499 48.4536 16.6089 48.241 16.8334ZM61.2097 44.6713V70.5336H55.6452H50.0806V44.6713V18.809H55.6452H61.2097V44.6713ZM32.8306 25.8623C31.7973 28.0019 31.4985 28.2135 29.5136 28.2135C26.5845 28.2135 26.2395 29.1145 28.3056 31.3663C29.9193 33.1249 29.99 33.3836 29.4368 35.5008C28.62 38.6242 29.3517 39.1926 32.208 37.6538L34.5 36.4183L36.792 37.6538C39.6483 39.1926 40.38 38.6242 39.5632 35.5008C39.01 33.3836 39.0807 33.1249 40.6944 31.3663C42.7605 29.1145 42.4155 28.2135 39.4864 28.2135C37.5015 28.2135 37.2027 28.0019 36.1694 25.8623C35.545 24.5692 34.7938 23.5112 34.5 23.5112C34.2062 23.5112 33.455 24.5692 32.8306 25.8623ZM35.5116 29.0951C35.905 30.0074 36.6045 30.5646 37.3568 30.5646C38.5176 30.5646 38.5276 30.6116 37.5967 31.6978C36.9762 32.4226 36.7575 33.2713 36.9918 34.0495C37.3246 35.1587 37.2261 35.2151 35.8922 34.6796C34.9151 34.287 34.081 34.287 33.3871 34.679C31.8708 35.536 31.5992 35.412 32.0088 34.0489C32.2425 33.2713 32.0238 32.422 31.4033 31.6978C30.4724 30.6116 30.4824 30.5646 31.6432 30.5646C32.3955 30.5646 33.095 30.0074 33.4884 29.0951C33.8367 28.2869 34.2924 27.6257 34.5 27.6257C34.7076 27.6257 35.1633 28.2869 35.5116 29.0951ZM11.6855 37.6179C10.6522 39.7575 10.3533 39.9691 8.36848 39.9691C5.43931 39.9691 5.09431 40.8701 7.16042 43.1219C8.77413 44.8806 8.8448 45.1392 8.29169 47.2564C7.47481 50.3798 8.20655 50.9482 11.0628 49.4094L13.3548 48.1739L15.6469 49.4094C18.5031 50.9482 19.2349 50.3798 18.418 47.2564C17.8649 45.1392 17.9355 44.8806 19.5493 43.1219C21.6154 40.8701 21.2704 39.9691 18.3412 39.9691C16.3563 39.9691 16.0575 39.7575 15.0242 37.6179C14.3999 36.3248 13.6486 35.2668 13.3548 35.2668C13.061 35.2668 12.3098 36.3248 11.6855 37.6179ZM14.3665 40.8507C14.7599 41.763 15.4593 42.3202 16.2117 42.3202C17.3724 42.3202 17.3824 42.3672 16.4515 43.4534C15.831 44.1782 15.6124 45.0269 15.8466 45.8051C16.1794 46.9143 16.0809 46.9707 14.7471 46.4352C13.77 46.0426 12.9358 46.0426 12.2419 46.4346C10.7256 47.2916 10.4541 47.1676 10.8636 45.8045C11.0973 45.0269 10.8786 44.1776 10.2582 43.4534C9.32724 42.3672 9.33726 42.3202 10.498 42.3202C11.2503 42.3202 11.9498 41.763 12.3432 40.8507C12.6915 40.0425 13.1473 39.3813 13.3548 39.3813C13.5624 39.3813 14.0181 40.0425 14.3665 40.8507ZM40.0645 56.4269V70.5336H34.5H28.9355V56.4269V42.3202H34.5H40.0645V56.4269ZM18.9194 62.3047V70.5336H13.3548H7.79032V62.3047V54.0758H13.3548H18.9194V62.3047Z" fill="white"/>
</svg>
